<svg xmlns="http://www.w3.org/2000/svg" viewBox="0 0 240 160" fill="none" shape-rendering="crispEdges">
  <g stroke="#F7B267" stroke-width="5" stroke-linecap="square">
    <path d="M48 50h14M55 43v14">
      <animate attributeName="opacity" values=".15;1;.15" dur="1.2s" repeatCount="indefinite"/>
    </path>
    <path d="M184 100h18M193 91v18">
      <animate attributeName="opacity" values="1;.15;1" dur="1.5s" repeatCount="indefinite"/>
    </path>
    <path d="M172 34h10M177 29v10">
      <animate attributeName="opacity" values=".2;1;.2" dur=".9s" repeatCount="indefinite"/>
    </path>
  </g>
  <g>
    <animateTransform attributeName="transform" type="translate" values="0 0;0 -4;0 0" dur="1.2s" repeatCount="indefinite"/>
    <g stroke="#7C2D12" stroke-width="6" stroke-linecap="square" stroke-linejoin="miter">
      <path d="M80 90H58V72H40V52h28v16h12" fill="#E86F4C"/>
      <path d="M160 90h22V72h18V52h-28v16h-12" fill="#E86F4C"/>
      <path d="M84 68h72v52H84z" fill="#D97757"/>
      <path d="M94 54h52v18H94z" fill="#F7B267"/>
      <path d="M104 34v20M136 34v20"/>
      <path d="M78 112 58 132M94 118 82 138M146 118l12 20M162 112l20 20"/>
    </g>
    <g>
      <animateTransform attributeName="transform" type="scale" values="1;1.05;1" additive="sum" dur="1.6s" repeatCount="indefinite"/>
      <rect x="96" y="80" width="12" height="12" fill="#0F172A"/>
      <rect x="132" y="80" width="12" height="12" fill="#0F172A"/>
      <rect x="98" y="80" width="5" height="5" fill="#FDE68A"/>
      <rect x="134" y="80" width="5" height="5" fill="#FDE68A"/>
      <path d="M108 103h24" stroke="#7C2D12" stroke-width="5" stroke-linecap="square"/>
    </g>
    <rect x="100" y="24" width="8" height="8" fill="#F7B267"/>
    <rect x="132" y="24" width="8" height="8" fill="#F7B267"/>
  </g>
</svg>
