<svg xmlns="http://www.w3.org/2000/svg" viewBox="0 0 240 160" fill="none" shape-rendering="crispEdges">
  <g transform="translate(0 4)">
    <g id="shadow" opacity=".22">
      <ellipse cx="120" cy="134" rx="54" ry="10" fill="#0F172A">
        <animate attributeName="rx" values="48;58;48" dur="1.6s" repeatCount="indefinite"/>
      </ellipse>
    </g>
    <g>
      <animateTransform attributeName="transform" type="translate" values="0 0;0 -6;0 0" dur="1.6s" repeatCount="indefinite"/>
      <g stroke="#7C2D12" stroke-width="6" stroke-linecap="square" stroke-linejoin="miter">
        <path d="M78 86H58V66H38V46h28v14h12" fill="#E86F4C">
          <animateTransform attributeName="transform" type="rotate" values="0 78 86;-12 78 86;0 78 86" dur="1.2s" repeatCount="indefinite"/>
        </path>
        <path d="M162 86h20V66h20V46h-28v14h-12" fill="#E86F4C">
          <animateTransform attributeName="transform" type="rotate" values="0 162 86;12 162 86;0 162 86" dur="1.2s" repeatCount="indefinite"/>
        </path>
        <path d="M82 70h76v48H82z" fill="#D97757"/>
        <path d="M94 58h52v16H94z" fill="#F7B267"/>
        <path d="M102 34v24M138 34v24"/>
        <path d="M76 112 58 130M94 116 82 136M146 116l12 20M164 112l18 18"/>
      </g>
      <g fill="#0F172A">
        <rect x="96" y="80" width="12" height="12"/>
        <rect x="132" y="80" width="12" height="12"/>
      </g>
      <g fill="#FDE68A">
        <rect x="97" y="80" width="5" height="5">
          <animate attributeName="height" values="5;1;5" dur="3s" repeatCount="indefinite"/>
        </rect>
        <rect x="133" y="80" width="5" height="5">
          <animate attributeName="height" values="5;1;5" dur="3s" repeatCount="indefinite"/>
        </rect>
      </g>
      <path d="M110 102h20" stroke="#7C2D12" stroke-width="5" stroke-linecap="square">
        <animate attributeName="d" values="M110 102h20;M108 102h24;M110 102h20" dur="1.6s" repeatCount="indefinite"/>
      </path>
      <g fill="#F7B267">
        <rect x="100" y="24" width="8" height="8"/>
        <rect x="132" y="24" width="8" height="8"/>
      </g>
    </g>
    <g stroke="#F7B267" stroke-width="4" stroke-linecap="square" opacity=".9">
      <path d="M56 26h10M61 21v10">
        <animate attributeName="opacity" values=".2;1;.2" dur="1.4s" repeatCount="indefinite"/>
      </path>
      <path d="M178 30h12M184 24v12">
        <animate attributeName="opacity" values="1;.2;1" dur="1.7s" repeatCount="indefinite"/>
      </path>
    </g>
  </g>
</svg>
