<?xml version="1.0" standalone="no"?><!DOCTYPE svg PUBLIC "-//W3C//DTD SVG 1.1//EN" "http://www.w3.org/Graphics/SVG/1.1/DTD/svg11.dtd"><svg t="1783396313866" class="icon" viewBox="0 0 1040 1024" version="1.1" xmlns="http://www.w3.org/2000/svg" p-id="13348" xmlns:xlink="http://www.w3.org/1999/xlink" width="520" height="512"><path d="M799.49349 623.780351m-224.50943 0a224.50943 224.50943 0 1 0 449.01886 0 224.50943 224.50943 0 1 0-449.01886 0Z" fill="#445CA8" p-id="13349"></path><path d="M799.49349 864.819435c-132.916782 0-241.039084-108.122302-241.039084-241.039084s108.122302-241.039084 241.039084-241.039084 241.039084 108.122302 241.039084 241.039084-108.122302 241.039084-241.039084 241.039084z m0-449.018861a207.979776 207.979776 0 1 0 207.979777 207.979777A208.218538 208.218538 0 0 0 799.49349 415.800574z" fill="#31352E" p-id="13350"></path><path d="M775.047969 592.906631m-165.112875 0a165.112874 165.112874 0 1 0 330.225749 0 165.112874 165.112874 0 1 0-330.225749 0Z" fill="#596EC6" p-id="13351"></path><path d="M385.407298 692.69064m-314.798072 0a314.798072 314.798072 0 1 0 629.596144 0 314.798072 314.798072 0 1 0-629.596144 0Z" fill="#445CA8" p-id="13352"></path><path d="M385.407298 1024c-182.689406 0-331.327726-148.63832-331.327726-331.327726s148.63832-331.327726 331.327726-331.327726 331.327726 148.63832 331.327726 331.327726-148.63832 331.327726-331.327726 331.327726z m0-629.577778c-164.470055 0-298.268418 133.798364-298.268418 298.268418s133.798364 298.268418 298.268418 298.268419 298.268418-133.798364 298.268418-298.268419-133.798364-298.268418-298.268418-298.268418z" fill="#31352E" p-id="13353"></path><path d="M374.222232 657.041687m-248.275399 0a248.275399 248.275399 0 1 0 496.550798 0 248.275399 248.275399 0 1 0-496.550798 0Z" fill="#596EC6" p-id="13354"></path><path d="M157.242978 795.468354a12.856397 12.856397 0 0 1-12.085014-8.44849c-27.420859-75.301756-8.88928-138.518498 14.270601-202.029101a12.856397 12.856397 0 1 1 24.243492 8.742351c-22.296666 61.178085-38.771221 117.287076-14.270601 184.470935a12.856397 12.856397 0 0 1-12.085013 17.264305z" fill="#FEFEFE" p-id="13355"></path><path d="M206.90423 532.473651m-20.153697 1.409284a20.20291 20.20291 0 1 0 40.307394-2.818567 20.20291 20.20291 0 1 0-40.307394 2.818567Z" fill="#FEFEFE" p-id="13356"></path><path d="M770.107439 274.380204q-85.384845 53.262218-187.078948 44.611698 36.732564-95.247538 122.099043-148.601587t187.078947-44.611698q-36.732564 95.247538-122.099042 148.601587z" fill="#599917" p-id="13357"></path><path d="M611.073804 336.733731q-14.693026 0-29.477883-1.28564a16.529654 16.529654 0 0 1-14.068571-22.406864c25.712795-66.614505 69.020487-119.380832 128.766002-156.664385s126.121258-53.262218 197.253868-47.054414a16.529654 16.529654 0 0 1 14.013473 22.42523c-25.712795 66.614505-69.020487 119.380832-128.766003 156.664385a311.767636 311.767636 0 0 1-167.720886 48.321688z m-3.526326-33.059308a279.277683 279.277683 0 0 0 153.780878-43.289326 279.645008 279.645008 0 0 0 106.322406-119.233902 284.989597 284.989597 0 0 0-260.084918 162.504862z" fill="#31352E" p-id="13358"></path><path d="M164.111967 255.205805Q49.488002 183.669137 16.538892 29.576032 169.419823-8.313608 284.025422 63.296525T431.616863 288.926299q-152.899297 37.88964-267.504896-33.720494z" fill="#599917" p-id="13359"></path><path d="M330.602313 318.496013c-64.098324 0-122.760228-16.529654-175.287795-49.276735C75.310994 219.244625 23.224219 139.773723 0.376564 33.065625A16.529654 16.529654 0 0 1 12.571775 13.523901c105.95508-26.263783 200.192473-14.233868 280.214363 35.740785s132.127032 129.445555 154.974687 236.190386a16.529654 16.529654 0 0 1-12.195211 19.431526 436.088998 436.088998 0 0 1-104.963301 13.609415z m-157.766362-77.303681c68.157272 42.591408 148.454657 54.43766 238.871863 35.336727-22.42523-89.664188-68.249104-156.627652-136.443109-199.21906S126.736584 22.872339 36.392843 41.973272C58.78134 131.63746 104.697045 198.600924 172.872684 241.192332z" fill="#31352E" p-id="13360"></path><path d="M857.200348 145.999893l-245.814317 153.597216q32.177726-70.948947 100.041137-113.375059t145.77318-40.222157z" fill="#8DD049" p-id="13361"></path><path d="M49.230874 52.956309q123.807106-22.498695 218.742417 36.824395T393.047671 267.786708z" fill="#8DD049" p-id="13362"></path><path d="M379.732117 948.992105a13.774711 13.774711 0 0 1-12.599269-8.172996 39.965029 39.965029 0 0 1 0-33.353168 53.262218 53.262218 0 0 1 30.175801-27.549423c19.927416-6.446565 54.051968-5.987408 66.375743 21.690579a13.774711 13.774711 0 0 1-25.161807 11.203432c-5.509885-12.415607-27.549423-8.356658-32.728714-6.685326a26.337248 26.337248 0 0 0-13.499217 12.580903 12.599269 12.599269 0 0 0 0 10.927938 13.774711 13.774711 0 0 1-12.580903 19.376427z" fill="#31352E" p-id="13363"></path><path d="M816.427202 795.670383a13.774711 13.774711 0 0 1-12.599269-8.172995 28.963627 28.963627 0 0 1 0-23.876167A36.732564 36.732564 0 0 1 824.655296 744.667218c13.425752-4.334443 36.512168-3.673256 45.144321 15.61134a13.774711 13.774711 0 1 1-25.161806 11.203432c-0.78975-1.836628-7.548542-1.836628-11.515659-0.606087a9.421903 9.421903 0 0 0-4.169146 4.058948 1.359105 1.359105 0 0 0 0 1.359105 13.774711 13.774711 0 0 1-12.580903 19.376427z" fill="#31352E" p-id="13364"></path></svg>